<svg width="240" height="240" viewBox="0 0 240 240" xmlns="http://www.w3.org/2000/svg">
  <defs>
    <!-- 静态渐变 -->
    <linearGradient id="techGradient" x1="0%" y1="0%" x2="100%" y2="100%">
      <stop offset="0%" style="stop-color:#00F5A0"/>
      <stop offset="50%" style="stop-color:#00D9F5"/>
      <stop offset="100%" style="stop-color:#37A3FF"/>
    </linearGradient>

    <!-- 发光效果 -->
    <filter id="enhancedGlow" x="-50%" y="-50%" width="200%" height="200%">
      <feGaussianBlur in="SourceGraphic" stdDeviation="1" result="blur1"/>
      <feGaussianBlur in="SourceGraphic" stdDeviation="2" result="blur2"/>
      <feGaussianBlur in="SourceGraphic" stdDeviation="4" result="blur3"/>
      <feMerge>
        <feMergeNode in="blur3"/>
        <feMergeNode in="blur2"/>
        <feMergeNode in="blur1"/>
        <feMergeNode in="SourceGraphic"/>
      </feMerge>
    </filter>
  </defs>

  <!-- 背景 -->
  <rect x="0" y="0" width="240" height="240" fill="#0A192F"/>

  <!-- Logo主体 -->
  <g transform="translate(20,20)">
    <!-- 外环 -->
    <path d="
      M 100 0
      A 100 100 0 0 1 200 100
      A 100 100 0 0 1 100 200
      A 100 100 0 0 1 0 100
      A 100 100 0 0 1 100 0
      Z"
      fill="none"
      stroke="url(#techGradient)"
      stroke-width="1.5"
      filter="url(#enhancedGlow)"/>

    <!-- 内环 -->
    <path d="
      M 100 40
      A 60 60 0 0 1 160 100
      A 60 60 0 0 1 100 160
      A 60 60 0 0 1 40 100
      A 60 60 0 0 1 100 40
      Z"
      fill="none"
      stroke="url(#techGradient)"
      stroke-width="1"
      opacity="0.6"
      filter="url(#enhancedGlow)"/>

    <!-- 数据节点 -->
    <g class="data-nodes">
      <circle cx="100" cy="0" r="3" fill="#fff" filter="url(#enhancedGlow)"/>
      <circle cx="200" cy="100" r="3" fill="#fff" filter="url(#enhancedGlow)"/>
      <circle cx="100" cy="200" r="3" fill="#fff" filter="url(#enhancedGlow)"/>
      <circle cx="0" cy="100" r="3" fill="#fff" filter="url(#enhancedGlow)"/>
    </g>

    <!-- 中心文字 -->
    <g transform="translate(100,100)" text-anchor="middle">
      <text y="0" 
            font-family="Arial, sans-serif" 
            font-size="28" 
            font-weight="bold" 
            fill="url(#techGradient)" 
            filter="url(#enhancedGlow)">
        Chameleon
      </text>
    </g>

    <!-- 静态连接线 -->
    <g class="data-flow">
      <path d="M100 0 Q150 0 200 100" 
            stroke="url(#techGradient)" 
            stroke-width="0.5" 
            fill="none" 
            opacity="0.5"/>
      <path d="M200 100 Q200 150 100 200" 
            stroke="url(#techGradient)" 
            stroke-width="0.5" 
            fill="none" 
            opacity="0.5"/>
      <path d="M100 200 Q0 150 0 100" 
            stroke="url(#techGradient)" 
            stroke-width="0.5" 
            fill="none" 
            opacity="0.5"/>
      <path d="M0 100 Q0 0 100 0" 
            stroke="url(#techGradient)" 
            stroke-width="0.5" 
            fill="none" 
            opacity="0.5"/>
    </g>
  </g>
</svg>